<svg width="70" height="70" viewBox="0 0 70 70" fill="none" xmlns="http://www.w3.org/2000/svg">
<rect width="70" height="70" rx="35" fill="#70F41F" fill-opacity="0.14"/>
<path fill-rule="evenodd" clip-rule="evenodd" d="M15.5 35C15.5 24.23 24.23 15.5 35 15.5C45.77 15.5 54.5 24.23 54.5 35C54.5 45.77 45.77 54.5 35 54.5C24.23 54.5 15.5 45.77 15.5 35ZM42.22 31.372C42.34 31.2121 42.4268 31.0298 42.4754 30.8359C42.5239 30.642 42.5332 30.4403 42.5027 30.2427C42.4722 30.0451 42.4025 29.8556 42.2977 29.6854C42.1929 29.5151 42.0552 29.3676 41.8925 29.2513C41.7299 29.1351 41.5456 29.0525 41.3506 29.0085C41.1556 28.9644 40.9538 28.9598 40.757 28.9949C40.5601 29.03 40.3723 29.1041 40.2046 29.2128C40.0368 29.3215 39.8924 29.4627 39.78 29.628L33.308 38.688L30.06 35.44C29.7757 35.175 29.3996 35.0308 29.011 35.0376C28.6224 35.0445 28.2516 35.2019 27.9768 35.4768C27.7019 35.7516 27.5445 36.1224 27.5376 36.511C27.5308 36.8996 27.675 37.2757 27.94 37.56L32.44 42.06C32.594 42.2139 32.7796 42.3324 32.984 42.4073C33.1884 42.4822 33.4066 42.5118 33.6235 42.4939C33.8405 42.476 34.0509 42.4111 34.2403 42.3037C34.4296 42.1963 34.5933 42.049 34.72 41.872L42.22 31.372Z" fill="#70F41F"/>
</svg>
